#N canvas 867 302 946 666 12;
#N canvas 625 247 815 646 fm 0;
#X obj 586 643 +~;
#X obj 573 601 *~;
#X floatatom 740 583 5 0 0 0 - - - 0;
#X obj 497 75 inlet;
#X obj 1005 240 inlet;
#X obj 586 756 outlet~;
#X obj 586 697 *~;
#X obj 678 697 snapshot~;
#X floatatom 693 730 8 0 0 0 - - - 0;
#X obj 648 643 line~;
#X msg 659 601 0 \, 1 10000;
#X obj 388 572 osc~;
#X obj 1092 643 +~;
#X obj 1079 601 *~;
#X floatatom 1246 583 5 0 0 0 - - - 0;
#X obj 1092 756 outlet~;
#X obj 1092 697 *~;
#X obj 1184 697 snapshot~;
#X floatatom 1199 730 8 0 0 0 - - - 0;
#X obj 1154 643 line~;
#X msg 1165 601 0 \, 1 10000;
#X obj 894 572 osc~;
#X obj 206 283 f;
#X obj 204 315 + 1;
#X obj 193 414 t f f;
#X floatatom 193 454 5 0 0 0 - - - 12;
#X obj 232 106 bng 25 250 50 0 empty empty empty 17 7 0 10 #191919 #e1e1e1 #e1e1e1;
#X obj 186 87 inlet;
#X obj 278 524 bng 25 250 50 0 empty empty empty 17 7 0 10 #191919 #e1e1e1 #e1e1e1;
#X obj 157 589 bng 25 250 50 0 empty empty empty 17 7 0 10 #191919 #e1e1e1 #e1e1e1;
#X floatatom 470 210 5 0 0 0 - - - 12;
#X floatatom 530 210 5 0 0 0 - - - 12;
#X obj 204 347 mod 4;
#X obj 193 503 route 0 2;
#X floatatom 615 240 5 0 0 0 - - - 12;
#X floatatom 512 274 5 0 0 0 - - - 12;
#X obj 434 414 spigot;
#X obj 757 356 spigot;
#X msg 794 315 1;
#X msg 512 356 0;
#X msg 547 356 1;
#X msg 825 315 0;
#X msg 744 619 1 \, 0 1000;
#X msg 1275 601 1 \, 0 1000;
#X obj 573 523 osc~;
#X obj 1074 523 osc~;
#X obj 585 454 * 3.333;
#X obj 987 481 * 3.333, f 5;
#X connect 0 0 6 0;
#X connect 1 0 0 1;
#X connect 3 0 30 0;
#X connect 3 0 31 0;
#X connect 4 0 13 1;
#X connect 4 0 1 1;
#X connect 6 0 5 0;
#X connect 7 0 8 0;
#X connect 9 0 6 1;
#X connect 9 0 7 0;
#X connect 10 0 9 0;
#X connect 11 0 0 0;
#X connect 12 0 16 0;
#X connect 13 0 12 1;
#X connect 16 0 15 0;
#X connect 17 0 18 0;
#X connect 19 0 16 1;
#X connect 19 0 17 0;
#X connect 20 0 19 0;
#X connect 21 0 12 0;
#X connect 22 0 23 0;
#X connect 23 0 32 0;
#X connect 24 0 25 0;
#X connect 24 1 22 1;
#X connect 25 0 33 0;
#X connect 26 0 22 0;
#X connect 27 0 26 0;
#X connect 28 0 31 0;
#X connect 28 0 20 0;
#X connect 28 0 40 0;
#X connect 28 0 41 0;
#X connect 28 0 42 0;
#X connect 29 0 30 0;
#X connect 29 0 10 0;
#X connect 29 0 39 0;
#X connect 29 0 38 0;
#X connect 29 0 43 0;
#X connect 30 0 35 0;
#X connect 30 0 36 0;
#X connect 31 0 34 0;
#X connect 31 0 37 0;
#X connect 32 0 24 0;
#X connect 33 0 29 0;
#X connect 33 1 28 0;
#X connect 34 0 46 0;
#X connect 35 0 47 0;
#X connect 36 0 11 0;
#X connect 37 0 21 0;
#X connect 38 0 37 1;
#X connect 39 0 36 1;
#X connect 40 0 36 1;
#X connect 41 0 37 1;
#X connect 42 0 9 0;
#X connect 43 0 19 0;
#X connect 44 0 1 0;
#X connect 45 0 13 0;
#X connect 46 0 44 0;
#X connect 47 0 45 0;
#X restore 321 246 pd fm;
#N canvas 0 50 450 300 clock 0;
#X msg 435 375 46;
#X msg 635 369 48;
#X msg 822 353 49;
#X msg 1032 364 51;
#X msg 1299 375 52;
#X msg 1513 389 54;
#X msg 1813 383 56;
#X msg 2098 364 58;
#X obj 277 98 loadbang;
#X obj 372 101 bng 25 250 50 0 empty empty empty 17 7 0 10 #e4e4e4 #4d4d4d #373737;
#X obj 329 543 bng 25 250 50 0 empty empty empty 17 7 0 10 #e4e4e4 #4d4d4d #373737;
#X obj 552 215 sel 0 1 2 3 4 5 6 7;
#X obj 329 403 sel 64;
#X msg 667 652 0;
#X msg 709 650 12;
#X msg 747 650 24;
#X msg 784 650 48;
#X msg 822 650 -12;
#X obj 561 600 +;
#X obj 552 844 outlet;
#X floatatom 553 702 5 0 0 0 - - - 12;
#X obj 559 756 mtof;
#X obj 618 799 nbx 4 18 -1e+37 1e+37 0 0 empty empty empty 0 -8 0 10 #191919 #e1e1e1 #e1e1e1 0 256;
#X msg 207 191 1;
#X obj 166 168 bng 25 250 50 0 empty empty empty 17 7 0 10 #191919 #e1e1e1 #e1e1e1;
#X obj 137 243 f;
#X obj 138 285 + 1;
#X obj 127 384 t f f;
#X floatatom 127 424 5 0 0 0 - - - 12;
#X obj 138 317 mod 65;
#X obj 692 610 sel 0 1 2 3 4;
#X obj 407 315 spigot;
#X obj 473 296 tgl 21 0 empty empty empty 0 -11 0 12 #fcfcfc #000000 #000000 0 1;
#X obj 392 383 bng 25 250 50 0 empty empty empty 17 7 0 10 #191919 #e1e1e1 #e1e1e1;
#X obj 590 397 bng 25 250 50 0 empty empty empty 17 7 0 10 #191919 #e1e1e1 #e1e1e1;
#X obj 796 406 bng 25 250 50 0 empty empty empty 17 7 0 10 #191919 #e1e1e1 #e1e1e1;
#X obj 1022 406 bng 25 250 50 0 empty empty empty 17 7 0 10 #191919 #e1e1e1 #e1e1e1;
#X obj 1290 408 bng 25 250 50 0 empty empty empty 17 7 0 10 #191919 #e1e1e1 #e1e1e1;
#X obj 1536 417 bng 25 250 50 0 empty empty empty 17 7 0 10 #191919 #e1e1e1 #e1e1e1;
#X obj 1813 425 bng 25 250 50 0 empty empty empty 17 7 0 10 #191919 #e1e1e1 #e1e1e1;
#X obj 2102 417 bng 25 250 50 0 empty empty empty 17 7 0 10 #191919 #e1e1e1 #e1e1e1;
#X obj 509 264 inlet;
#X obj 604 285 spigot;
#X obj 670 266 tgl 21 0 empty empty empty 0 -11 0 12 #fcfcfc #000000 #000000 0 1;
#X obj 589 353 bng 25 250 50 0 empty empty empty 17 7 0 10 #191919 #e1e1e1 #e1e1e1;
#X obj 678 305 nbx 4 18 -1e+37 1e+37 0 0 empty empty empty 0 -8 0 10 #191919 #e1e1e1 #e1e1e1 0 256;
#X obj 678 345 == 1;
#X obj 706 234 inlet;
#X obj 785 285 spigot;
#X obj 851 266 tgl 21 0 empty empty empty 0 -11 0 12 #fcfcfc #000000 #000000 0 1;
#X obj 770 353 bng 25 250 50 0 empty empty empty 17 7 0 10 #191919 #e1e1e1 #e1e1e1;
#X obj 859 305 nbx 4 18 -1e+37 1e+37 0 0 empty empty empty 0 -8 0 10 #191919 #e1e1e1 #e1e1e1 0 256;
#X obj 859 345 == 1;
#X obj 887 234 inlet;
#X obj 1000 285 spigot;
#X obj 1066 266 tgl 21 0 empty empty empty 0 -11 0 12 #fcfcfc #000000 #000000 0 1;
#X obj 985 353 bng 25 250 50 0 empty empty empty 17 7 0 10 #191919 #e1e1e1 #e1e1e1;
#X obj 1074 305 nbx 4 18 -1e+37 1e+37 0 0 empty empty empty 0 -8 0 10 #191919 #e1e1e1 #e1e1e1 0 256;
#X obj 1074 345 == 1;
#X obj 1102 234 inlet;
#X obj 1268 285 spigot;
#X obj 1334 266 tgl 21 0 empty empty empty 0 -11 0 12 #fcfcfc #000000 #000000 0 1;
#X obj 1253 353 bng 25 250 50 0 empty empty empty 17 7 0 10 #191919 #e1e1e1 #e1e1e1;
#X obj 1342 305 nbx 4 18 -1e+37 1e+37 0 0 empty empty empty 0 -8 0 10 #191919 #e1e1e1 #e1e1e1 0 256;
#X obj 1342 345 == 1;
#X obj 1370 234 inlet;
#X obj 1482 285 spigot;
#X obj 1548 266 tgl 21 0 empty empty empty 0 -11 0 12 #fcfcfc #000000 #000000 0 1;
#X obj 1467 353 bng 25 250 50 0 empty empty empty 17 7 0 10 #191919 #e1e1e1 #e1e1e1;
#X obj 1556 305 nbx 4 18 -1e+37 1e+37 0 0 empty empty empty 0 -8 0 10 #191919 #e1e1e1 #e1e1e1 0 256;
#X obj 1556 345 == 1;
#X obj 1584 234 inlet;
#X obj 1775 274 spigot;
#X obj 1841 255 tgl 21 0 empty empty empty 0 -11 0 12 #fcfcfc #000000 #000000 0 1;
#X obj 1760 342 bng 25 250 50 0 empty empty empty 17 7 0 10 #191919 #e1e1e1 #e1e1e1;
#X obj 1849 294 nbx 4 18 -1e+37 1e+37 0 0 empty empty empty 0 -8 0 10 #191919 #e1e1e1 #e1e1e1 0 256;
#X obj 1849 334 == 1;
#X obj 1877 223 inlet;
#X obj 2051 266 spigot;
#X obj 2117 247 tgl 21 0 empty empty empty 0 -11 0 12 #fcfcfc #000000 #000000 0 1;
#X obj 2036 334 bng 25 250 50 0 empty empty empty 17 7 0 10 #191919 #e1e1e1 #e1e1e1;
#X obj 2125 286 nbx 4 18 -1e+37 1e+37 0 0 empty empty empty 0 -8 0 10 #191919 #e1e1e1 #e1e1e1 0 256;
#X obj 2125 326 == 1;
#X obj 2153 215 inlet;
#X obj 392 198 nbx 4 18 -1e+37 1e+37 0 0 empty empty empty 0 -8 0 10 #191919 #e1e1e1 #e1e1e1 0 256;
#X obj 426 231 bng 25 250 50 0 empty empty empty 17 7 0 10 #191919 #e1e1e1 #e1e1e1;
#X obj 692 573 random 4;
#X obj 539 107 random 7;
#X obj 509 334 == 1;
#X obj 650 133 nbx 4 18 -1e+37 1e+37 0 0 empty empty empty 0 -8 0 10 #191919 #e1e1e1 #e1e1e1 0 256;
#X obj 201 533 sel 0 1;
#X obj 125 510 nbx 4 18 -1e+37 1e+37 0 0 empty empty empty 0 -8 0 10 #191919 #e1e1e1 #e1e1e1 0 256;
#X obj 268 453 bng 25 250 50 0 empty empty empty 17 7 0 10 #191919 #e1e1e1 #e1e1e1;
#X obj 227 502 random 3;
#X obj 277 152 metro 200;
#X obj 441 87 loadbang;
#X obj 441 116 delay 10;
#X connect 0 0 18 0;
#X connect 1 0 18 0;
#X connect 1 0 34 0;
#X connect 2 0 18 0;
#X connect 2 0 35 0;
#X connect 3 0 36 0;
#X connect 3 0 18 0;
#X connect 4 0 18 0;
#X connect 4 0 37 0;
#X connect 5 0 18 0;
#X connect 5 0 38 0;
#X connect 6 0 18 0;
#X connect 6 0 39 0;
#X connect 7 0 18 0;
#X connect 7 0 40 0;
#X connect 8 0 94 0;
#X connect 9 0 94 0;
#X connect 10 0 18 0;
#X connect 10 0 46 0;
#X connect 10 0 52 0;
#X connect 10 0 58 0;
#X connect 10 0 64 0;
#X connect 10 0 70 0;
#X connect 10 0 76 0;
#X connect 10 0 82 0;
#X connect 10 0 86 0;
#X connect 10 0 87 0;
#X connect 10 0 88 0;
#X connect 11 0 31 0;
#X connect 11 1 42 0;
#X connect 11 2 48 0;
#X connect 11 3 54 0;
#X connect 11 4 60 0;
#X connect 11 5 66 0;
#X connect 11 6 72 0;
#X connect 11 7 78 0;
#X connect 12 0 92 0;
#X connect 13 0 18 1;
#X connect 14 0 18 1;
#X connect 15 0 18 1;
#X connect 16 0 18 1;
#X connect 17 0 18 1;
#X connect 18 0 20 0;
#X connect 20 0 21 0;
#X connect 21 0 19 0;
#X connect 21 0 22 0;
#X connect 24 0 25 0;
#X connect 25 0 26 0;
#X connect 26 0 29 0;
#X connect 27 0 28 0;
#X connect 27 1 25 1;
#X connect 28 0 12 0;
#X connect 29 0 27 0;
#X connect 30 1 13 0;
#X connect 30 2 14 0;
#X connect 30 3 15 0;
#X connect 30 4 16 0;
#X connect 30 5 17 0;
#X connect 31 0 0 0;
#X connect 31 0 33 0;
#X connect 32 0 31 1;
#X connect 32 0 88 0;
#X connect 41 0 32 0;
#X connect 42 0 44 0;
#X connect 42 0 1 0;
#X connect 43 0 42 1;
#X connect 43 0 45 0;
#X connect 45 0 46 1;
#X connect 47 0 43 0;
#X connect 48 0 50 0;
#X connect 48 0 2 0;
#X connect 49 0 48 1;
#X connect 49 0 51 0;
#X connect 51 0 52 1;
#X connect 53 0 49 0;
#X connect 54 0 56 0;
#X connect 54 0 3 0;
#X connect 55 0 54 1;
#X connect 55 0 57 0;
#X connect 57 0 58 1;
#X connect 59 0 55 0;
#X connect 60 0 62 0;
#X connect 60 0 4 0;
#X connect 61 0 60 1;
#X connect 61 0 63 0;
#X connect 63 0 64 1;
#X connect 63 0 64 0;
#X connect 65 0 61 0;
#X connect 66 0 68 0;
#X connect 66 0 5 0;
#X connect 67 0 66 1;
#X connect 67 0 69 0;
#X connect 69 0 70 1;
#X connect 71 0 67 0;
#X connect 72 0 74 0;
#X connect 72 0 6 0;
#X connect 73 0 72 1;
#X connect 73 0 75 0;
#X connect 75 0 76 1;
#X connect 77 0 73 0;
#X connect 78 0 80 0;
#X connect 78 0 7 0;
#X connect 79 0 78 1;
#X connect 79 0 81 0;
#X connect 81 0 82 1;
#X connect 83 0 79 0;
#X connect 85 0 31 0;
#X connect 86 0 30 0;
#X connect 87 0 11 0;
#X connect 87 0 84 0;
#X connect 87 0 89 0;
#X connect 90 0 10 0;
#X connect 90 1 10 0;
#X connect 92 0 93 0;
#X connect 93 0 90 0;
#X connect 93 0 91 0;
#X connect 94 0 24 0;
#X connect 95 0 96 0;
#X connect 96 0 0 0;
#X restore 88 196 pd clock;
#X obj 291 724 dac~;
#X obj 113 236 vsl 24 128 0 2 0 0 empty empty empty 0 -9 0 10 #e4e4e4 #4d4d4d #373737 0 1;
#X obj 52 139 tgl 33 1 2 empty empty 0 -11 0 12 #fcfcfc #000000 #000000 1 1;
#X obj 88 139 tgl 33 1 empty empty empty 0 -11 0 12 #fcfcfc #000000 #000000 0 1;
#X obj 124 139 tgl 33 1 empty empty empty 0 -11 0 12 #fcfcfc #000000 #000000 0 1;
#X obj 160 139 tgl 33 1 empty empty empty 0 -11 0 12 #fcfcfc #000000 #000000 0 1;
#X obj 196 139 tgl 33 1 empty empty empty 0 -11 0 12 #fcfcfc #000000 #000000 0 1;
#X obj 232 139 tgl 33 1 empty empty empty 0 -11 0 12 #fcfcfc #000000 #000000 0 1;
#X obj 268 139 tgl 33 1 empty empty empty 0 -11 0 12 #fcfcfc #000000 #000000 0 1;
#X obj 305 139 tgl 33 1 empty empty empty 0 -11 0 12 #fcfcfc #000000 #000000 1 1;
#X obj 321 391 *~;
#X obj 370 391 *~;
#X obj 148 236 vsl 24 128 0 1 0 0 empty empty empty 0 -9 0 10 #e4e4e4 #4d4d4d #373737 0 1;
#X obj 552 536 snapshot~;
#X floatatom 524 572 5 0 0 0 - - - 12;
#X obj 524 375 loadbang;
#X obj 466 458 bng 25 250 50 0 empty empty empty 17 7 0 10 #191919 #e1e1e1 #e1e1e1;
#X obj 528 333 bng 22 250 50 0 empty empty empty 17 7 0 10 #191919 #e1e1e1 #e1e1e1;
#X obj 536 445 osc~;
#X obj 183 236 vsl 24 128 0.001 0.25 0 0 empty empty empty 0 -9 0 10 #e4e4e4 #4d4d4d #373737 0 1;
#X obj 400 488 *~ 1000;
#X obj 293 610 vcf~ 1;
#X obj 353 561 sig~ 200;
#X obj 454 572 * 1000;
#X obj 552 478 abs~;
#X obj 422 614 + 300;
#X obj 466 410 metro 100;
#X msg 370 672 set 0.5;
#X connect 0 0 12 0;
#X connect 0 1 13 0;
#X connect 1 0 0 1;
#X connect 1 0 0 0;
#X connect 3 0 0 2;
#X connect 4 0 1 0;
#X connect 5 0 1 1;
#X connect 6 0 1 2;
#X connect 7 0 1 3;
#X connect 8 0 1 4;
#X connect 9 0 1 5;
#X connect 10 0 1 6;
#X connect 11 0 1 7;
#X connect 12 0 23 0;
#X connect 13 0 23 0;
#X connect 14 0 13 1;
#X connect 14 0 12 1;
#X connect 15 0 16 0;
#X connect 16 0 25 0;
#X connect 17 0 28 0;
#X connect 18 0 15 0;
#X connect 19 0 28 0;
#X connect 20 0 22 0;
#X connect 20 0 26 0;
#X connect 21 0 20 0;
#X connect 23 0 2 0;
#X connect 23 0 2 1;
#X connect 24 0 23 1;
#X connect 25 0 27 0;
#X connect 26 0 15 0;
#X connect 27 0 24 0;
#X connect 28 0 18 0;
#X connect 29 0 23 2;
