#N canvas 867 302 946 666 12;
#N canvas 625 247 815 646 fm 1;
#X obj 497 449 vsl 17 128 0 10000 0 0 empty empty empty 0 -9 0 10 #e4e4e4 #4d4d4d #373737 0 1;
#X obj 586 643 +~;
#X obj 573 601 *~;
#X obj 719 416 vsl 14 128 0 1 0 0 empty empty empty 0 -9 0 10 #e4e4e4 #4d4d4d #373737 0 1;
#X floatatom 740 583 5 0 0 0 - - - 0;
#X obj 559 561 osc~;
#X obj 479 201 inlet;
#X obj 504 380 inlet;
#X obj 708 380 inlet;
#X obj 586 756 outlet~;
#X obj 586 697 *~;
#X obj 678 697 snapshot~;
#X floatatom 693 730 8 0 0 0 - - - 0;
#X obj 648 643 line~;
#X msg 659 601 0 \, 1 10000;
#X obj 388 572 osc~;
#X obj 1003 449 vsl 17 128 0 10000 0 0 empty empty empty 0 -9 0 10 #e4e4e4 #4d4d4d #373737 0 1;
#X obj 1092 643 +~;
#X obj 1079 601 *~;
#X obj 1225 416 vsl 14 128 0 1 0 0 empty empty empty 0 -9 0 10 #e4e4e4 #4d4d4d #373737 0 1;
#X floatatom 1246 583 5 0 0 0 - - - 0;
#X obj 1065 561 osc~;
#X obj 1010 380 inlet;
#X obj 1214 380 inlet;
#X obj 1092 756 outlet~;
#X obj 1092 697 *~;
#X obj 1184 697 snapshot~;
#X floatatom 1199 730 8 0 0 0 - - - 0;
#X obj 1154 643 line~;
#X msg 1165 601 0 \, 1 10000;
#X obj 894 572 osc~;
#X connect 0 0 5 0;
#X connect 1 0 10 0;
#X connect 2 0 1 1;
#X connect 3 0 2 1;
#X connect 3 0 4 0;
#X connect 5 0 2 0;
#X connect 6 0 14 0;
#X connect 6 0 15 0;
#X connect 7 0 0 0;
#X connect 8 0 3 0;
#X connect 10 0 9 0;
#X connect 11 0 12 0;
#X connect 13 0 10 1;
#X connect 13 0 11 0;
#X connect 14 0 13 0;
#X connect 15 0 1 0;
#X connect 16 0 21 0;
#X connect 17 0 25 0;
#X connect 18 0 17 1;
#X connect 19 0 18 1;
#X connect 19 0 20 0;
#X connect 21 0 18 0;
#X connect 22 0 16 0;
#X connect 23 0 19 0;
#X connect 25 0 24 0;
#X connect 26 0 27 0;
#X connect 28 0 25 1;
#X connect 28 0 26 0;
#X connect 29 0 28 0;
#X connect 30 0 17 0;
#X restore 318 237 pd fm;
#N canvas 0 50 450 300 clock 1;
#X msg 336 253 46;
#X msg 374 253 48;
#X msg 410 253 49;
#X msg 448 253 51;
#X msg 485 253 52;
#X msg 525 253 54;
#X msg 568 253 56;
#X msg 611 253 58;
#X obj 407 152 random 6;
#X obj 493 184 nbx 4 18 -1e+37 1e+37 0 0 empty empty empty 0 -8 0 10 #e4e4e4 #373737 #373737 0 256;
#X obj 277 98 loadbang;
#X obj 372 101 bng 25 250 50 0 empty empty empty 17 7 0 10 #e4e4e4 #4d4d4d #373737;
#X obj 277 152 metro 130;
#X obj 329 492 bng 25 250 50 0 empty empty empty 17 7 0 10 #e4e4e4 #4d4d4d #373737;
#X obj 393 213 sel 0 1 2 3 4 5 6 7;
#X obj 329 461 sel 64;
#X msg 695 253 0;
#X msg 731 253 12;
#X msg 769 253 24;
#X msg 806 253 48;
#X obj 618 87 spigot;
#X msg 844 253 -12;
#X msg 882 253 -24;
#X msg 927 253 -48;
#X obj 714 213 sel 0 1 2 3 4 5 6;
#X obj 561 600 +;
#X obj 552 844 outlet;
#X floatatom 553 702 5 0 0 0 - - - 12;
#X obj 714 176 random 6;
#X obj 559 756 mtof;
#X obj 618 799 nbx 4 18 -1e+37 1e+37 0 0 empty empty empty 0 -8 0 10 #191919 #e1e1e1 #e1e1e1 0 256;
#X msg 207 191 1;
#X obj 166 168 bng 25 250 50 0 empty empty empty 17 7 0 10 #191919 #e1e1e1 #e1e1e1;
#X obj 137 243 f;
#X obj 138 285 + 1;
#X obj 127 384 t f f;
#X floatatom 127 424 5 0 0 0 - - - 12;
#X obj 138 317 mod 65;
#X connect 0 0 25 0;
#X connect 1 0 25 0;
#X connect 2 0 25 0;
#X connect 3 0 25 0;
#X connect 4 0 25 0;
#X connect 5 0 25 0;
#X connect 6 0 25 0;
#X connect 7 0 25 0;
#X connect 8 0 9 0;
#X connect 8 0 14 0;
#X connect 10 0 12 0;
#X connect 11 0 12 0;
#X connect 12 0 32 0;
#X connect 13 0 8 0;
#X connect 13 0 25 0;
#X connect 13 0 28 0;
#X connect 14 0 0 0;
#X connect 14 1 1 0;
#X connect 14 2 2 0;
#X connect 14 3 3 0;
#X connect 14 4 4 0;
#X connect 14 5 5 0;
#X connect 14 6 6 0;
#X connect 14 7 7 0;
#X connect 15 0 13 0;
#X connect 16 0 25 1;
#X connect 17 0 25 1;
#X connect 18 0 25 1;
#X connect 19 0 25 1;
#X connect 21 0 25 1;
#X connect 22 0 25 1;
#X connect 23 0 25 1;
#X connect 24 1 16 0;
#X connect 24 2 17 0;
#X connect 24 3 18 0;
#X connect 24 4 19 0;
#X connect 24 5 21 0;
#X connect 24 6 22 0;
#X connect 24 7 23 0;
#X connect 25 0 27 0;
#X connect 27 0 29 0;
#X connect 28 0 24 0;
#X connect 29 0 26 0;
#X connect 29 0 30 0;
#X connect 32 0 33 0;
#X connect 33 0 34 0;
#X connect 34 0 37 0;
#X connect 35 0 36 0;
#X connect 35 1 33 1;
#X connect 36 0 15 0;
#X connect 37 0 35 0;
#X restore 239 139 pd clock;
#X obj 337 285 dac~;
#X obj 354 84 vsl 17 128 0 127 0 0 empty empty empty 0 -9 0 10 #e4e4e4 #4d4d4d #373737 0 1;
#X obj 388 84 vsl 17 128 0 127 0 0 empty empty empty 0 -9 0 10 #e4e4e4 #4d4d4d #373737 0 1;
#X connect 0 0 2 0;
#X connect 0 0 2 1;
#X connect 1 0 0 0;
#X connect 3 0 0 1;
#X connect 4 0 0 2;
